<?xml version="1.0" encoding="UTF-8"?>
<svg id="Layer_1" data-name="Layer 1" xmlns="http://www.w3.org/2000/svg" viewBox="0 0 144 144">
  <defs>
    <style>
      .cls-1 {
        fill: #231f20;
      }
    </style>
  </defs>
  <g>
    <path class="cls-1" d="m27.58,109.26h2.16c-.18,2.39-1.78,3.38-3.52,3.38-2.36,0-4-1.72-4-4.94s1.64-4.94,4-4.94c1.73,0,3.34.99,3.52,3.38h-2.16c-.18-1.19-.59-1.66-1.36-1.66-.95,0-1.66.89-1.66,3.23s.72,3.22,1.66,3.22c.77,0,1.18-.45,1.36-1.65Z"/>
    <path class="cls-1" d="m36.37,110.25h-2.56l-.55,2.25h-2.27l2.74-9.61h2.68l2.95,9.61h-2.39l-.62-2.25Zm-.47-1.73l-.86-3.2-.79,3.2h1.65Z"/>
    <path class="cls-1" d="m48.36,112.5h-2.4l-.98-2.57c-.3-.82-.67-.97-1.25-.97h-.31v3.54h-2.2v-9.61h3.31c1.56,0,3.17.87,3.17,2.95,0,1.21-.61,1.95-1.41,2.38.36.25.63.66.88,1.3l1.19,2.98Zm-4.3-5.26c.92,0,1.47-.45,1.47-1.32s-.55-1.32-1.46-1.32h-.66v2.64h.64Z"/>
    <path class="cls-1" d="m57.37,112.5h-2.4l-.97-2.57c-.3-.82-.67-.97-1.25-.97h-.32v3.54h-2.2v-9.61h3.31c1.56,0,3.17.87,3.17,2.95,0,1.21-.61,1.95-1.42,2.38.36.25.63.66.88,1.3l1.2,2.98Zm-4.3-5.26c.92,0,1.47-.45,1.47-1.32s-.55-1.32-1.46-1.32h-.66v2.64h.64Z"/>
    <path class="cls-1" d="m64.17,110.25h-2.55l-.55,2.25h-2.27l2.75-9.61h2.68l2.95,9.61h-2.39l-.62-2.25Zm-.46-1.73l-.87-3.2-.78,3.2h1.65Z"/>
    <path class="cls-1" d="m75.86,107.56v4.94h-1.43l-.21-.77c-.51.62-1.24.91-2.11.91-2.14,0-3.75-1.72-3.75-4.94s1.64-4.94,4-4.94c1.73,0,3.33.99,3.5,3.38h-2.14c-.18-1.19-.6-1.66-1.36-1.66-.94,0-1.66.89-1.66,3.23s.8,3.22,1.77,3.22c.84,0,1.46-.66,1.47-1.86v-.1h-1.17v-1.4h3.09Z"/>
    <path class="cls-1" d="m84.23,110.77v1.73h-5.79v-9.61h5.65v1.72h-3.46v2.06h3.05v1.73h-3.05v2.38h3.6Z"/>
    <path class="cls-1" d="m92.23,110.77v1.73h-5.79v-9.61h5.65v1.72h-3.46v2.06h3.05v1.73h-3.05v2.38h3.6Z"/>
    <path class="cls-1" d="m102.1,102.89v9.61h-1.66l-3.85-5.37v5.37h-2.2v-9.61h1.65l3.86,5.27v-5.27h2.2Z"/>
    <path class="cls-1" d="m109.27,110.25h-2.55l-.55,2.25h-2.27l2.75-9.61h2.68l2.95,9.61h-2.39l-.62-2.25Zm-.47-1.73l-.86-3.2-.78,3.2h1.65Z"/>
    <path class="cls-1" d="m121.78,102.89v9.61h-1.67l-3.84-5.37v5.37h-2.2v-9.61h1.65l3.86,5.27v-5.27h2.2Z"/>
  </g>
  <g>
    <path class="cls-1" d="m59.45,118.36v2.39h3.13v1.72h-3.13v3.79h-2.2v-9.61h5.47v1.72h-3.27Z"/>
    <path class="cls-1" d="m71.87,126.25h-2.4l-.97-2.57c-.3-.82-.67-.97-1.25-.97h-.32v3.54h-2.2v-9.61h3.31c1.56,0,3.17.87,3.17,2.95,0,1.21-.61,1.95-1.42,2.38.36.25.63.66.88,1.3l1.2,2.98Zm-4.3-5.26c.92,0,1.47-.45,1.47-1.32s-.55-1.32-1.46-1.32h-.66v2.64h.64Z"/>
    <path class="cls-1" d="m79.51,124.52v1.73h-5.79v-9.61h5.65v1.72h-3.46v2.06h3.05v1.73h-3.05v2.38h3.6Z"/>
    <path class="cls-1" d="m87.51,124.52v1.73h-5.79v-9.61h5.65v1.72h-3.46v2.06h3.05v1.73h-3.05v2.38h3.6Z"/>
  </g>
  <path class="cls-1" d="m69.05,17.88c-19.82,1.73-34.53,19.27-32.8,39.09,1.73,19.82,19.27,34.53,39.09,32.8,19.82-1.73,34.53-19.27,32.8-39.08-1.74-19.82-19.27-34.54-39.09-32.8m.22,2.49c10.42-.91,20.16,3.07,26.96,10.03.29.3.55.62.83.93l-51.34,43.09c-.26-.33-.5-.67-.74-1.01-3.42-4.74-5.68-10.42-6.23-16.66-1.61-18.45,12.08-34.77,30.53-36.38m5.85,66.9c-10.42.91-20.16-3.07-26.96-10.02-.29-.3-.56-.62-.83-.93l51.35-43.09c.26.33.5.67.74,1.01,3.42,4.75,5.68,10.42,6.23,16.66,1.61,18.45-12.08,34.76-30.53,36.38"/>
  <path class="cls-1" d="m73.51,67.13c-3.68,0-6.71-1.41-8.88-3.69l-2.62,2.2c2.83,2.75,6.77,4.48,11.5,4.48,6.25,0,12.13-3.66,13.99-10.4h-3.53c-1.72,4.97-6.43,7.42-10.46,7.42"/>
  <path class="cls-1" d="m73.51,40.53c2.37,0,4.97.86,7.16,2.92l2.52-2.12c-2.73-2.57-6.13-3.79-9.69-3.79-9.86,0-16.33,7.42-16.33,16.28,0,2.81.65,5.47,1.85,7.79l2.94-2.47c-.61-1.62-.94-3.42-.94-5.32,0-7.42,4.93-13.3,12.49-13.3"/>
</svg>